<svg data-name="Layer 1" viewBox="0 0 50 50" xmlns="http://www.w3.org/2000/svg"><path d="M45.81 12.3H29.64V8.47a1 1 0 0 0-1-1H17.8a1 1 0 0 0-1 1v3.83h-3.35v-3a1 1 0 0 0-1-1H8a1 1 0 0 0-1 1v3H4.19A3.2 3.2 0 0 0 1 15.5v23.83a3.2 3.2 0 0 0 3.19 3.2h41.62a3.2 3.2 0 0 0 3.19-3.2V15.5a3.2 3.2 0 0 0-3.19-3.2Zm-27-2.83h8.84v2.83H18.8ZM9 10.29h2.45v2H9Zm38 29a1.2 1.2 0 0 1-1.19 1.2H4.19A1.2 1.2 0 0 1 3 39.33V15.5a1.2 1.2 0 0 1 1.19-1.2h41.62A1.2 1.2 0 0 1 47 15.5Z" fill="#aeb4bc" class="fill-000000"></path><path d="M25 17.26a10.16 10.16 0 1 0 10.15 10.16A10.17 10.17 0 0 0 25 17.26Zm0 18.31a8.16 8.16 0 1 1 8.15-8.15A8.16 8.16 0 0 1 25 35.57Z" fill="#aeb4bc" class="fill-000000"></path><path d="M25 22.92a4.5 4.5 0 1 0 4.5 4.5 4.5 4.5 0 0 0-4.5-4.5Zm0 7a2.5 2.5 0 1 1 2.5-2.5 2.51 2.51 0 0 1-2.5 2.5Z" fill="#aeb4bc" class="fill-000000"></path></svg>