<svg viewBox="0 0 64 64" xml:space="preserve" xmlns="http://www.w3.org/2000/svg" fill-rule="evenodd" clip-rule="evenodd" stroke-linejoin="round" stroke-miterlimit="2"><path d="M29 12v3H6c-.796 0-1.559.316-2.121.879A2.996 2.996 0 0 0 3 18v13.5a1 1 0 0 0 2 0V18a.997.997 0 0 1 1-1h52a.997.997 0 0 1 1 1v25H44.488a12.47 12.47 0 0 0-3.649-9.339 12.437 12.437 0 0 0-4.755-2.976A6.996 6.996 0 0 0 39 25c0-3.863-3.137-7-7-7s-7 3.137-7 7a6.996 6.996 0 0 0 2.916 5.685 12.437 12.437 0 0 0-4.755 2.976A12.47 12.47 0 0 0 19.512 43H5v-8a1 1 0 0 0-2 0v13c0 .796.316 1.559.879 2.121A2.996 2.996 0 0 0 6 51h4a1 1 0 0 0 0-2H6a.997.997 0 0 1-1-1v-3h54v3a.997.997 0 0 1-1 1H14a1 1 0 0 0 0 2h12.606c-.16 2.682-.855 6.147-3.417 8H21.5a1 1 0 0 0 0 2h21a1 1 0 0 0 0-2h-1.689c-2.562-1.854-3.257-5.318-3.417-8H58c.796 0 1.559-.316 2.121-.879A2.996 2.996 0 0 0 61 48V18c0-.796-.316-1.559-.879-2.121A2.996 2.996 0 0 0 58 15H35v-3h3a3 3 0 0 0 3-3V6a3 3 0 0 0-3-3H26a3 3 0 0 0-3 3v3a3 3 0 0 0 3 3h3Zm6.394 39h-6.788c-.155 2.531-.785 5.68-2.585 8h11.958c-1.8-2.32-2.43-5.47-2.585-8ZM27.42 33.049a10.501 10.501 0 0 0-2.845 2.026 10.477 10.477 0 0 0-3.063 7.882l.001.043h20.974l.001-.043a10.477 10.477 0 0 0-3.063-7.882 10.501 10.501 0 0 0-2.845-2.026 4.7 4.7 0 0 1-9.16 0ZM7 36v2a1 1 0 0 0 2 0v-2a1 1 0 0 0-2 0Zm27.675-3.654a10.565 10.565 0 0 0-5.35 0 2.7 2.7 0 0 0 5.35 0ZM9 33V20a1 1 0 0 0-2 0v13a1 1 0 0 0 2 0Zm23-13c2.76 0 5 2.24 5 5s-2.24 5-5 5-5-2.24-5-5 2.24-5 5-5Zm-1-8h2v3h-2v-3Zm8-6v3a1 1 0 0 1-1 1H26a1 1 0 0 1-1-1V6a1 1 0 0 1 1-1h12a1 1 0 0 1 1 1Zm-3 .5a1 1 0 1 1 0 2 1 1 0 0 1 0-2Zm-8 0a1 1 0 1 1 0 2 1 1 0 0 1 0-2Z" fill="#aeb4bc" class="fill-000000"></path></svg>